<svg xmlns="http://www.w3.org/2000/svg" xmlns:xlink="http://www.w3.org/1999/xlink" contentStyleType="text/css" data-diagram-type="DESCRIPTION" height="268px" preserveAspectRatio="none" style="width:652px;height:268px;background:#FFFFFF;" version="1.1" viewBox="0 0 652 268" width="652px" zoomAndPan="magnify"><defs/><g><!--cluster Lamagraph.Compiler--><g class="cluster" data-entity="Lamagraph.Compiler" data-source-line="5" data-uid="ent0002" id="cluster_Lamagraph.Compiler"><path d="M401.5,4 L549.3315,4 A3.75,3.75 0 0 1 551.8315,6.5 L558.8315,29.0679 L642.5,29.0679 A2.5,2.5 0 0 1 645,31.5679 L645,258.5 A2.5,2.5 0 0 1 642.5,261 L401.5,261 A2.5,2.5 0 0 1 399,258.5 L399,6.5 A2.5,2.5 0 0 1 401.5,4" fill="none" style="stroke:#000000;stroke-width:1.5;"/><line style="stroke:#000000;stroke-width:1.5;" x1="399" x2="558.8315" y1="29.0679" y2="29.0679"/><text fill="#000000" font-family="sans-serif" font-size="14" font-weight="bold" lengthAdjust="spacing" textLength="146.8315" x="403" y="20.9659">Lamagraph.Compiler</text></g><!--cluster Lamagraph.Nets--><g class="cluster" data-entity="Lamagraph.Nets" data-source-line="21" data-uid="ent0015" id="cluster_Lamagraph.Nets"><path d="M16.5,4 L133.9656,4 A3.75,3.75 0 0 1 136.4656,6.5 L143.4656,29.0679 L388.5,29.0679 A2.5,2.5 0 0 1 391,31.5679 L391,258.5 A2.5,2.5 0 0 1 388.5,261 L16.5,261 A2.5,2.5 0 0 1 14,258.5 L14,6.5 A2.5,2.5 0 0 1 16.5,4" fill="none" style="stroke:#000000;stroke-width:1.5;"/><line style="stroke:#000000;stroke-width:1.5;" x1="14" x2="143.4656" y1="29.0679" y2="29.0679"/><text fill="#000000" font-family="sans-serif" font-size="14" font-weight="bold" lengthAdjust="spacing" textLength="116.4656" x="18" y="20.9659">Lamagraph.Nets</text></g><!--entity Syntax--><g class="entity" data-entity="Syntax" data-source-line="6" data-uid="ent0003" id="entity_Syntax"><rect fill="#F1F1F1" height="49.0679" rx="2.5" ry="2.5" style="stroke:#181818;stroke-width:0.5;" width="83.7918" x="543" y="204"/><rect fill="#F1F1F1" height="10" style="stroke:#181818;stroke-width:0.5;" width="15" x="606.7918" y="209"/><rect fill="#F1F1F1" height="2" style="stroke:#181818;stroke-width:0.5;" width="4" x="604.7918" y="211"/><rect fill="#F1F1F1" height="2" style="stroke:#181818;stroke-width:0.5;" width="4" x="604.7918" y="215"/><text fill="#000000" font-family="sans-serif" font-size="14" lengthAdjust="spacing" textLength="43.7918" x="558" y="238.9659">Syntax</text></g><!--entity Parser--><g class="entity" data-entity="Parser" data-source-line="7" data-uid="ent0004" id="entity_Parser"><rect fill="#F1F1F1" height="49.0679" rx="2.5" ry="2.5" style="stroke:#181818;stroke-width:0.5;" width="82.4899" x="443" y="204"/><rect fill="#F1F1F1" height="10" style="stroke:#181818;stroke-width:0.5;" width="15" x="505.4899" y="209"/><rect fill="#F1F1F1" height="2" style="stroke:#181818;stroke-width:0.5;" width="4" x="503.4899" y="211"/><rect fill="#F1F1F1" height="2" style="stroke:#181818;stroke-width:0.5;" width="4" x="503.4899" y="215"/><text fill="#000000" font-family="sans-serif" font-size="14" lengthAdjust="spacing" textLength="42.4899" x="458" y="238.9659">Parser</text></g><!--entity Typechecker--><g class="entity" data-entity="Typechecker" data-source-line="8" data-uid="ent0005" id="entity_Typechecker"><rect fill="#F1F1F1" height="49.0679" rx="2.5" ry="2.5" style="stroke:#181818;stroke-width:0.5;" width="122.5717" x="513.5" y="119"/><rect fill="#F1F1F1" height="10" style="stroke:#181818;stroke-width:0.5;" width="15" x="616.0717" y="124"/><rect fill="#F1F1F1" height="2" style="stroke:#181818;stroke-width:0.5;" width="4" x="614.0717" y="126"/><rect fill="#F1F1F1" height="2" style="stroke:#181818;stroke-width:0.5;" width="4" x="614.0717" y="130"/><text fill="#000000" font-family="sans-serif" font-size="14" lengthAdjust="spacing" textLength="82.5717" x="528.5" y="153.9659">Typechecker</text></g><!--entity Core--><g class="entity" data-entity="Core" data-source-line="9" data-uid="ent0006" id="entity_Core"><rect fill="#F1F1F1" height="49.0679" rx="2.5" ry="2.5" style="stroke:#181818;stroke-width:0.5;" width="70.9959" x="424.5" y="119"/><rect fill="#F1F1F1" height="10" style="stroke:#181818;stroke-width:0.5;" width="15" x="475.4959" y="124"/><rect fill="#F1F1F1" height="2" style="stroke:#181818;stroke-width:0.5;" width="4" x="473.4959" y="126"/><rect fill="#F1F1F1" height="2" style="stroke:#181818;stroke-width:0.5;" width="4" x="473.4959" y="130"/><text fill="#000000" font-family="sans-serif" font-size="14" lengthAdjust="spacing" textLength="30.9959" x="439.5" y="153.9659">Core</text></g><!--entity LmlToCore--><g class="entity" data-entity="LmlToCore" data-source-line="10" data-uid="ent0007" id="entity_LmlToCore"><rect fill="#F1F1F1" height="49.0679" rx="2.5" ry="2.5" style="stroke:#181818;stroke-width:0.5;" width="111.2877" x="525.5" y="34"/><rect fill="#F1F1F1" height="10" style="stroke:#181818;stroke-width:0.5;" width="15" x="616.7877" y="39"/><rect fill="#F1F1F1" height="2" style="stroke:#181818;stroke-width:0.5;" width="4" x="614.7877" y="41"/><rect fill="#F1F1F1" height="2" style="stroke:#181818;stroke-width:0.5;" width="4" x="614.7877" y="45"/><text fill="#000000" font-family="sans-serif" font-size="14" lengthAdjust="spacing" textLength="71.2877" x="540.5" y="68.9659">LmlToCore</text></g><!--entity Eval--><g class="entity" data-entity="Eval" data-source-line="11" data-uid="ent0008" id="entity_Eval"><rect fill="#F1F1F1" height="49.0679" rx="2.5" ry="2.5" style="stroke:#181818;stroke-width:0.5;" width="66.3619" x="441" y="34"/><rect fill="#F1F1F1" height="10" style="stroke:#181818;stroke-width:0.5;" width="15" x="487.3619" y="39"/><rect fill="#F1F1F1" height="2" style="stroke:#181818;stroke-width:0.5;" width="4" x="485.3619" y="41"/><rect fill="#F1F1F1" height="2" style="stroke:#181818;stroke-width:0.5;" width="4" x="485.3619" y="45"/><text fill="#000000" font-family="sans-serif" font-size="14" lengthAdjust="spacing" textLength="26.3619" x="456" y="68.9659">Eval</text></g><!--entity CoreToNet--><g class="entity" data-entity="CoreToNet" data-source-line="22" data-uid="ent0016" id="entity_CoreToNet"><rect fill="#F1F1F1" height="49.0679" rx="2.5" ry="2.5" style="stroke:#181818;stroke-width:0.5;" width="110.8397" x="161.5" y="204"/><rect fill="#F1F1F1" height="10" style="stroke:#181818;stroke-width:0.5;" width="15" x="252.3397" y="209"/><rect fill="#F1F1F1" height="2" style="stroke:#181818;stroke-width:0.5;" width="4" x="250.3397" y="211"/><rect fill="#F1F1F1" height="2" style="stroke:#181818;stroke-width:0.5;" width="4" x="250.3397" y="215"/><text fill="#000000" font-family="sans-serif" font-size="14" lengthAdjust="spacing" textLength="70.8397" x="176.5" y="238.9659">CoreToNet</text></g><!--entity NetToConfiguration--><g class="entity" data-entity="NetToConfiguration" data-source-line="23" data-uid="ent0017" id="entity_NetToConfiguration"><rect fill="#F1F1F1" height="49.0679" rx="2.5" ry="2.5" style="stroke:#181818;stroke-width:0.5;" width="170.9275" x="22.5" y="119"/><rect fill="#F1F1F1" height="10" style="stroke:#181818;stroke-width:0.5;" width="15" x="173.4275" y="124"/><rect fill="#F1F1F1" height="2" style="stroke:#181818;stroke-width:0.5;" width="4" x="171.4275" y="126"/><rect fill="#F1F1F1" height="2" style="stroke:#181818;stroke-width:0.5;" width="4" x="171.4275" y="130"/><text fill="#000000" font-family="sans-serif" font-size="14" lengthAdjust="spacing" textLength="130.9275" x="37.5" y="153.9659">NetToConfiguration</text></g><!--entity ConfigurationToNet--><g class="entity" data-entity="ConfigurationToNet" data-source-line="24" data-uid="ent0018" id="entity_ConfigurationToNet"><rect fill="#F1F1F1" height="49.0679" rx="2.5" ry="2.5" style="stroke:#181818;stroke-width:0.5;" width="170.9275" x="211.5" y="119"/><rect fill="#F1F1F1" height="10" style="stroke:#181818;stroke-width:0.5;" width="15" x="362.4275" y="124"/><rect fill="#F1F1F1" height="2" style="stroke:#181818;stroke-width:0.5;" width="4" x="360.4275" y="126"/><rect fill="#F1F1F1" height="2" style="stroke:#181818;stroke-width:0.5;" width="4" x="360.4275" y="130"/><text fill="#000000" font-family="sans-serif" font-size="14" lengthAdjust="spacing" textLength="130.9275" x="226.5" y="153.9659">ConfigurationToNet</text></g><!--entity AbstractMachine--><g class="entity" data-entity="AbstractMachine" data-source-line="25" data-uid="ent0019" id="entity_AbstractMachine"><rect fill="#F1F1F1" height="49.0679" rx="2.5" ry="2.5" style="stroke:#181818;stroke-width:0.5;" width="150.8096" x="226.5" y="34"/><rect fill="#F1F1F1" height="10" style="stroke:#181818;stroke-width:0.5;" width="15" x="357.3096" y="39"/><rect fill="#F1F1F1" height="2" style="stroke:#181818;stroke-width:0.5;" width="4" x="355.3096" y="41"/><rect fill="#F1F1F1" height="2" style="stroke:#181818;stroke-width:0.5;" width="4" x="355.3096" y="45"/><text fill="#000000" font-family="sans-serif" font-size="14" lengthAdjust="spacing" textLength="110.8096" x="241.5" y="68.9659">AbstractMachine</text></g><g class="link" data-entity-1="Eval" data-entity-2="Core" data-uid="lnk9" id="link_Eval_Core"><polygon fill="#181818" points="463.9843,118.8786,469.4255,110.6693,464.816,113.9483,461.537,109.3387,463.9843,118.8786" style="stroke:#181818;stroke-width:1;"/><path d="M470.0256,83.0625 C468.134,94.2773 466.8752,101.7398 464.9823,112.9622" fill="none" style="stroke:#181818;stroke-width:1;"/></g><g class="link" data-entity-1="LmlToCore" data-entity-2="Typechecker" data-uid="lnk10" id="link_LmlToCore_Typechecker"><polygon fill="#181818" points="576.7076,118.8786,581.3461,110.1905,577.0681,113.8916,573.3669,109.6136,576.7076,118.8786" style="stroke:#181818;stroke-width:1;"/><path d="M579.2967,83.0625 C578.486,94.2773 577.9514,101.6718 577.1402,112.8942" fill="none" style="stroke:#181818;stroke-width:1;"/></g><g class="link" data-entity-1="LmlToCore" data-entity-2="Core" data-uid="lnk11" id="link_LmlToCore_Core"><polygon fill="#181818" points="494.436,118.8786,504.1204,117.0862,498.5592,116.0503,499.5951,110.4891,494.436,118.8786" style="stroke:#181818;stroke-width:1;"/><path d="M546.6499,83.0625 C530.3006,94.2773 515.7442,104.2623 499.3838,115.4847" fill="none" style="stroke:#181818;stroke-width:1;"/></g><g class="link" data-entity-1="Typechecker" data-entity-2="Parser" data-uid="lnk12" id="link_Typechecker_Parser"><polygon fill="#181818" points="509.8981,203.8786,519.2432,200.769,513.5923,200.5092,513.8521,194.8583,509.8981,203.8786" style="stroke:#181818;stroke-width:1;"/><path d="M549.1665,168.0625 C536.8707,179.2773 526.6352,188.6129 514.3312,199.8353" fill="none" style="stroke:#181818;stroke-width:1;"/></g><g class="link" data-entity-1="Typechecker" data-entity-2="Syntax" data-uid="lnk13" id="link_Typechecker_Syntax"><polygon fill="#181818" points="582.1541,203.8786,585.0488,194.4648,581.556,198.9145,577.1062,195.4217,582.1541,203.8786" style="stroke:#181818;stroke-width:1;"/><path d="M577.8389,168.0625 C579.19,179.2773 580.0843,186.6993 581.4364,197.9217" fill="none" style="stroke:#181818;stroke-width:1;"/></g><g class="link" data-entity-1="Parser" data-entity-2="Syntax" data-uid="lnk14" id="link_Parser_Syntax"><polygon fill="#181818" points="542.8345,228.5,533.8345,224.5,537.8345,228.5,533.8345,232.5,542.8345,228.5" style="stroke:#181818;stroke-width:1;"/><path d="M525.0313,228.5 C530.9657,228.5 530.9001,228.5 536.8345,228.5" fill="none" style="stroke:#181818;stroke-width:1;"/></g><g class="link" data-entity-1="NetToConfiguration" data-entity-2="CoreToNet" data-uid="lnk20" id="link_NetToConfiguration_CoreToNet"><polygon fill="#181818" points="185.9792,203.8786,181.2421,195.2438,182.0012,200.8495,176.3955,201.6086,185.9792,203.8786" style="stroke:#181818;stroke-width:1;"/><path d="M138.9435,168.0625 C153.6714,179.2773 166.4677,189.0213 181.2056,200.2437" fill="none" style="stroke:#181818;stroke-width:1;"/></g><g class="link" data-entity-1="AbstractMachine" data-entity-2="NetToConfiguration" data-uid="lnk21" id="link_AbstractMachine_NetToConfiguration"><polygon fill="#181818" points="163.2114,118.8786,173.0593,119.0161,167.8084,116.9119,169.9125,111.6609,163.2114,118.8786" style="stroke:#181818;stroke-width:1;"/><path d="M246.9263,83.0625 C220.7133,94.2773 194.9584,105.2961 168.7277,116.5185" fill="none" style="stroke:#181818;stroke-width:1;"/></g><g class="link" data-entity-1="AbstractMachine" data-entity-2="ConfigurationToNet" data-uid="lnk22" id="link_AbstractMachine_ConfigurationToNet"><polygon fill="#181818" points="298.423,118.8786,302.9569,110.1354,298.7236,113.8877,294.9714,109.6544,298.423,118.8786" style="stroke:#181818;stroke-width:1;"/><path d="M300.5806,83.0625 C299.905,94.2773 299.4598,101.6671 298.7838,112.8895" fill="none" style="stroke:#181818;stroke-width:1;"/></g><g class="link" data-entity-1="CoreToNet" data-entity-2="Core" data-uid="lnk25" id="link_CoreToNet_Core"><polygon fill="#181818" points="424.2949,157.5853,414.4711,156.8823,419.5925,159.2847,417.1902,164.4061,424.2949,157.5853" style="stroke:#181818;stroke-width:1;"/><path d="M272.8386,209.2214 C307.973,197.6247 354.2233,182.184 395,168 C404.5201,164.6885 409.1482,163.0592 418.6521,159.6246" fill="none" style="stroke:#181818;stroke-width:1;"/></g><!--SRC=[RLBBReCm4BpxAxOdBgMV4AcAsbDQLIgtA8UDSS42FsGsJL2KVwyDY88n4aAUsTqPnlja7LOAeSNUN0Ww9GWrCfO16UjVE1iYew2KJd2IHZDcaJTO2JYWmigXhL_sHbdP2WTt1lxX_cYqq0JVlIQyHU0Nkawu22nwAtWjUBDXziQ923gejZ09_EqNM_PWB7mXptTZxrmzG4kXDJCKB-W1dCp6yFHZ8ml_G2ASJq7T9fYWLHXFHRX7WYFz8wkBmo7lk771fIQydZjooEa3UItrc50M1Ts5aBPISmhZt6ZIm2RyfSeIBlr6fHR7Pt_tL2A5T-dK5VsLPF08tIiGLawZiFEZDWvryrpBiXJwj4kiAajiRtvCD8I9NdqMMrps0fiKJwEhFm00]--></g></svg>