<svg xmlns="http://www.w3.org/2000/svg" xmlns:xlink="http://www.w3.org/1999/xlink" contentStyleType="text/css" data-diagram-type="DESCRIPTION" height="268px" preserveAspectRatio="none" style="width:510px;height:268px;background:#FFFFFF;" version="1.1" viewBox="0 0 510 268" width="510px" zoomAndPan="magnify"><defs/><g><!--cluster Lamagraph.Compiler--><g class="cluster" data-entity="Lamagraph.Compiler" data-source-line="3" data-uid="ent0002" id="cluster_Lamagraph.Compiler"><path d="M16.5,4 L164.3315,4 A3.75,3.75 0 0 1 166.8315,6.5 L173.8315,29.0679 L240.5,29.0679 A2.5,2.5 0 0 1 243,31.5679 L243,258.5 A2.5,2.5 0 0 1 240.5,261 L16.5,261 A2.5,2.5 0 0 1 14,258.5 L14,6.5 A2.5,2.5 0 0 1 16.5,4" fill="none" style="stroke:#000000;stroke-width:1.5;"/><line style="stroke:#000000;stroke-width:1.5;" x1="14" x2="173.8315" y1="29.0679" y2="29.0679"/><text fill="#000000" font-family="sans-serif" font-size="14" font-weight="bold" lengthAdjust="spacing" textLength="146.8315" x="18" y="20.9659">Lamagraph.Compiler</text></g><!--cluster Lamagraph.Nets--><g class="cluster" data-entity="Lamagraph.Nets" data-source-line="19" data-uid="ent0015" id="cluster_Lamagraph.Nets"><path d="M253.5,4 L370.9656,4 A3.75,3.75 0 0 1 373.4656,6.5 L380.4656,29.0679 L500.5,29.0679 A2.5,2.5 0 0 1 503,31.5679 L503,173.5 A2.5,2.5 0 0 1 500.5,176 L253.5,176 A2.5,2.5 0 0 1 251,173.5 L251,6.5 A2.5,2.5 0 0 1 253.5,4" fill="none" style="stroke:#000000;stroke-width:1.5;"/><line style="stroke:#000000;stroke-width:1.5;" x1="251" x2="380.4656" y1="29.0679" y2="29.0679"/><text fill="#000000" font-family="sans-serif" font-size="14" font-weight="bold" lengthAdjust="spacing" textLength="116.4656" x="255" y="20.9659">Lamagraph.Nets</text></g><!--entity Syntax--><g class="entity" data-entity="Syntax" data-source-line="4" data-uid="ent0003" id="entity_Syntax"><rect fill="#F1F1F1" height="49.0679" rx="2.5" ry="2.5" style="stroke:#181818;stroke-width:0.5;" width="83.7918" x="132" y="204"/><rect fill="#F1F1F1" height="10" style="stroke:#181818;stroke-width:0.5;" width="15" x="195.7918" y="209"/><rect fill="#F1F1F1" height="2" style="stroke:#181818;stroke-width:0.5;" width="4" x="193.7918" y="211"/><rect fill="#F1F1F1" height="2" style="stroke:#181818;stroke-width:0.5;" width="4" x="193.7918" y="215"/><text fill="#000000" font-family="sans-serif" font-size="14" lengthAdjust="spacing" textLength="43.7918" x="147" y="238.9659">Syntax</text></g><!--entity Parser--><g class="entity" data-entity="Parser" data-source-line="5" data-uid="ent0004" id="entity_Parser"><rect fill="#F1F1F1" height="49.0679" rx="2.5" ry="2.5" style="stroke:#181818;stroke-width:0.5;" width="82.4899" x="32" y="204"/><rect fill="#F1F1F1" height="10" style="stroke:#181818;stroke-width:0.5;" width="15" x="94.4899" y="209"/><rect fill="#F1F1F1" height="2" style="stroke:#181818;stroke-width:0.5;" width="4" x="92.4899" y="211"/><rect fill="#F1F1F1" height="2" style="stroke:#181818;stroke-width:0.5;" width="4" x="92.4899" y="215"/><text fill="#000000" font-family="sans-serif" font-size="14" lengthAdjust="spacing" textLength="42.4899" x="47" y="238.9659">Parser</text></g><!--entity Typechecker--><g class="entity" data-entity="Typechecker" data-source-line="6" data-uid="ent0005" id="entity_Typechecker"><rect fill="#F1F1F1" height="49.0679" rx="2.5" ry="2.5" style="stroke:#181818;stroke-width:0.5;" width="122.5717" x="22.5" y="119"/><rect fill="#F1F1F1" height="10" style="stroke:#181818;stroke-width:0.5;" width="15" x="125.0717" y="124"/><rect fill="#F1F1F1" height="2" style="stroke:#181818;stroke-width:0.5;" width="4" x="123.0717" y="126"/><rect fill="#F1F1F1" height="2" style="stroke:#181818;stroke-width:0.5;" width="4" x="123.0717" y="130"/><text fill="#000000" font-family="sans-serif" font-size="14" lengthAdjust="spacing" textLength="82.5717" x="37.5" y="153.9659">Typechecker</text></g><!--entity Core--><g class="entity" data-entity="Core" data-source-line="7" data-uid="ent0006" id="entity_Core"><rect fill="#F1F1F1" height="49.0679" rx="2.5" ry="2.5" style="stroke:#181818;stroke-width:0.5;" width="70.9959" x="163.5" y="119"/><rect fill="#F1F1F1" height="10" style="stroke:#181818;stroke-width:0.5;" width="15" x="214.4959" y="124"/><rect fill="#F1F1F1" height="2" style="stroke:#181818;stroke-width:0.5;" width="4" x="212.4959" y="126"/><rect fill="#F1F1F1" height="2" style="stroke:#181818;stroke-width:0.5;" width="4" x="212.4959" y="130"/><text fill="#000000" font-family="sans-serif" font-size="14" lengthAdjust="spacing" textLength="30.9959" x="178.5" y="153.9659">Core</text></g><!--entity LmlToCore--><g class="entity" data-entity="LmlToCore" data-source-line="8" data-uid="ent0007" id="entity_LmlToCore"><rect fill="#F1F1F1" height="49.0679" rx="2.5" ry="2.5" style="stroke:#181818;stroke-width:0.5;" width="111.2877" x="32.5" y="34"/><rect fill="#F1F1F1" height="10" style="stroke:#181818;stroke-width:0.5;" width="15" x="123.7877" y="39"/><rect fill="#F1F1F1" height="2" style="stroke:#181818;stroke-width:0.5;" width="4" x="121.7877" y="41"/><rect fill="#F1F1F1" height="2" style="stroke:#181818;stroke-width:0.5;" width="4" x="121.7877" y="45"/><text fill="#000000" font-family="sans-serif" font-size="14" lengthAdjust="spacing" textLength="71.2877" x="47.5" y="68.9659">LmlToCore</text></g><!--entity Eval--><g class="entity" data-entity="Eval" data-source-line="9" data-uid="ent0008" id="entity_Eval"><rect fill="#F1F1F1" height="49.0679" rx="2.5" ry="2.5" style="stroke:#181818;stroke-width:0.5;" width="66.3619" x="166" y="34"/><rect fill="#F1F1F1" height="10" style="stroke:#181818;stroke-width:0.5;" width="15" x="212.3619" y="39"/><rect fill="#F1F1F1" height="2" style="stroke:#181818;stroke-width:0.5;" width="4" x="210.3619" y="41"/><rect fill="#F1F1F1" height="2" style="stroke:#181818;stroke-width:0.5;" width="4" x="210.3619" y="45"/><text fill="#000000" font-family="sans-serif" font-size="14" lengthAdjust="spacing" textLength="26.3619" x="181" y="68.9659">Eval</text></g><!--entity Reduction--><g class="entity" data-entity="Reduction" data-source-line="20" data-uid="ent0016" id="entity_Reduction"><rect fill="#F1F1F1" height="49.0679" rx="2.5" ry="2.5" style="stroke:#181818;stroke-width:0.5;" width="106.3737" x="389" y="34"/><rect fill="#F1F1F1" height="10" style="stroke:#181818;stroke-width:0.5;" width="15" x="475.3737" y="39"/><rect fill="#F1F1F1" height="2" style="stroke:#181818;stroke-width:0.5;" width="4" x="473.3737" y="41"/><rect fill="#F1F1F1" height="2" style="stroke:#181818;stroke-width:0.5;" width="4" x="473.3737" y="45"/><text fill="#000000" font-family="sans-serif" font-size="14" lengthAdjust="spacing" textLength="66.3737" x="404" y="68.9659">Reduction</text></g><!--entity Processing--><g class="entity" data-entity="Processing" data-source-line="21" data-uid="ent0017" id="entity_Processing"><rect fill="#F1F1F1" height="49.0679" rx="2.5" ry="2.5" style="stroke:#181818;stroke-width:0.5;" width="111.6237" x="259" y="34"/><rect fill="#F1F1F1" height="10" style="stroke:#181818;stroke-width:0.5;" width="15" x="350.6237" y="39"/><rect fill="#F1F1F1" height="2" style="stroke:#181818;stroke-width:0.5;" width="4" x="348.6237" y="41"/><rect fill="#F1F1F1" height="2" style="stroke:#181818;stroke-width:0.5;" width="4" x="348.6237" y="45"/><text fill="#000000" font-family="sans-serif" font-size="14" lengthAdjust="spacing" textLength="71.6237" x="274" y="68.9659">Processing</text></g><!--entity Types--><g class="entity" data-entity="Types" data-source-line="22" data-uid="ent0018" id="entity_Types"><rect fill="#F1F1F1" height="49.0679" rx="2.5" ry="2.5" style="stroke:#181818;stroke-width:0.5;" width="78.1358" x="389" y="119"/><rect fill="#F1F1F1" height="10" style="stroke:#181818;stroke-width:0.5;" width="15" x="447.1358" y="124"/><rect fill="#F1F1F1" height="2" style="stroke:#181818;stroke-width:0.5;" width="4" x="445.1358" y="126"/><rect fill="#F1F1F1" height="2" style="stroke:#181818;stroke-width:0.5;" width="4" x="445.1358" y="130"/><text fill="#000000" font-family="sans-serif" font-size="14" lengthAdjust="spacing" textLength="38.1358" x="404" y="153.9659">Types</text></g><!--entity CoreToNet--><g class="entity" data-entity="CoreToNet" data-source-line="23" data-uid="ent0019" id="entity_CoreToNet"><rect fill="#F1F1F1" height="49.0679" rx="2.5" ry="2.5" style="stroke:#181818;stroke-width:0.5;" width="110.8397" x="259.5" y="119"/><rect fill="#F1F1F1" height="10" style="stroke:#181818;stroke-width:0.5;" width="15" x="350.3397" y="124"/><rect fill="#F1F1F1" height="2" style="stroke:#181818;stroke-width:0.5;" width="4" x="348.3397" y="126"/><rect fill="#F1F1F1" height="2" style="stroke:#181818;stroke-width:0.5;" width="4" x="348.3397" y="130"/><text fill="#000000" font-family="sans-serif" font-size="14" lengthAdjust="spacing" textLength="70.8397" x="274.5" y="153.9659">CoreToNet</text></g><g class="link" data-entity-1="Eval" data-entity-2="Core" data-uid="lnk9" id="link_Eval_Core"><polygon fill="#181818" points="199,118.8786,203,109.8786,199,113.8786,195,109.8786,199,118.8786" style="stroke:#181818;stroke-width:1;"/><path d="M199,83.0625 C199,94.2773 199,101.6562 199,112.8786" fill="none" style="stroke:#181818;stroke-width:1;"/></g><g class="link" data-entity-1="LmlToCore" data-entity-2="Typechecker" data-uid="lnk10" id="link_LmlToCore_Typechecker"><polygon fill="#181818" points="85.1384,118.8786,89.567,110.0816,85.3791,113.8844,81.5762,109.6965,85.1384,118.8786" style="stroke:#181818;stroke-width:1;"/><path d="M86.8645,83.0625 C86.324,94.2773 85.968,101.6632 85.4272,112.8856" fill="none" style="stroke:#181818;stroke-width:1;"/></g><g class="link" data-entity-1="LmlToCore" data-entity-2="Core" data-uid="lnk11" id="link_LmlToCore_Core"><polygon fill="#181818" points="167.41,118.8786,162.5976,110.2856,163.4056,115.8844,157.8068,116.6925,167.41,118.8786" style="stroke:#181818;stroke-width:1;"/><path d="M119.5112,83.0625 C134.5094,94.2773 147.5965,104.0632 162.6048,115.2856" fill="none" style="stroke:#181818;stroke-width:1;"/></g><g class="link" data-entity-1="Typechecker" data-entity-2="Parser" data-uid="lnk12" id="link_Typechecker_Parser"><polygon fill="#181818" points="76.1305,203.8786,81.2783,195.4822,76.7875,198.922,73.3476,194.4311,76.1305,203.8786" style="stroke:#181818;stroke-width:1;"/><path d="M80.8773,168.0625 C79.391,179.2773 78.4061,186.7082 76.9188,197.9306" fill="none" style="stroke:#181818;stroke-width:1;"/></g><g class="link" data-entity-1="Typechecker" data-entity-2="Syntax" data-uid="lnk13" id="link_Typechecker_Syntax"><polygon fill="#181818" points="148.3865,203.8786,144.4822,194.8367,144.7109,200.4889,139.0587,200.7176,148.3865,203.8786" style="stroke:#181818;stroke-width:1;"/><path d="M109.5497,168.0625 C121.7103,179.2773 131.8069,188.5886 143.9758,199.811" fill="none" style="stroke:#181818;stroke-width:1;"/></g><g class="link" data-entity-1="Parser" data-entity-2="Syntax" data-uid="lnk14" id="link_Parser_Syntax"><polygon fill="#181818" points="131.8345,228.5,122.8345,224.5,126.8345,228.5,122.8345,232.5,131.8345,228.5" style="stroke:#181818;stroke-width:1;"/><path d="M114.0313,228.5 C119.9657,228.5 119.9001,228.5 125.8345,228.5" fill="none" style="stroke:#181818;stroke-width:1;"/></g><g class="link" data-entity-1="Reduction" data-entity-2="Types" data-uid="lnk20" id="link_Reduction_Types"><polygon fill="#181818" points="431.9843,118.8786,437.4255,110.6693,432.816,113.9483,429.537,109.3387,431.9843,118.8786" style="stroke:#181818;stroke-width:1;"/><path d="M438.0256,83.0625 C436.134,94.2773 434.8752,101.7398 432.9823,112.9622" fill="none" style="stroke:#181818;stroke-width:1;"/></g><g class="link" data-entity-1="Processing" data-entity-2="Types" data-uid="lnk21" id="link_Processing_Types"><polygon fill="#181818" points="395.8408,118.8786,390.9551,110.327,391.811,115.9187,386.2193,116.7746,395.8408,118.8786" style="stroke:#181818;stroke-width:1;"/><path d="M347.079,83.0625 C362.3474,94.2773 375.7264,104.1043 391.0051,115.3267" fill="none" style="stroke:#181818;stroke-width:1;"/></g><g class="link" data-entity-1="CoreToNet" data-entity-2="Core" data-uid="lnk22" id="link_CoreToNet_Core"><polygon fill="#181818" points="234.7969,143.5,243.7969,147.5,239.7969,143.5,243.7969,139.5,234.7969,143.5" style="stroke:#181818;stroke-width:1;"/><path d="M259.2338,143.5 C251.0881,143.5 248.9425,143.5 240.7969,143.5" fill="none" style="stroke:#181818;stroke-width:1;"/></g><g class="link" data-entity-1="CoreToNet" data-entity-2="Types" data-uid="lnk23" id="link_CoreToNet_Types"><polygon fill="#181818" points="388.9976,143.5,379.9976,139.5,383.9976,143.5,379.9976,147.5,388.9976,143.5" style="stroke:#181818;stroke-width:1;"/><path d="M370.6172,143.5 C376.744,143.5 376.8708,143.5 382.9976,143.5" fill="none" style="stroke:#181818;stroke-width:1;"/></g><!--SRC=[RP393e8m54Nt_Ohd1-0dk27kY37AphXuAIz0e4FQOYJ6VvT9Xj9kcfxxXjvxq0PpWL1Zgne7Lf13YOnfv1Nc10aAp0tguXWheSkQ37mOT8TtJoL9EhYtqk7RWrSqbem7qrOJBuXNEoLMXZoKY3fL0Nv-OSs-ZFKtHD5fx9sh1xHUj5M6ufKymEcpFfwCZIei813EXPpT1NEZhE6kLDBFnYXErfOo3-HZ0ycagflVUvudpYujMwQjuDm5VyyR4kXy56MMaNnEvJy0]--></g></svg>