<svg xmlns="http://www.w3.org/2000/svg" xmlns:xlink="http://www.w3.org/1999/xlink" contentStyleType="text/css" data-diagram-type="DESCRIPTION" height="438px" preserveAspectRatio="none" style="width:381px;height:438px;background:#FFFFFF;" version="1.1" viewBox="0 0 381 438" width="381px" zoomAndPan="magnify"><defs/><g><!--cluster LamagraphML--><g id="cluster_LamagraphML"><path d="M148,4 L249.7156,4 A3.75,3.75 0 0 1 252.2156,6.5 L259.2156,29.0679 L372,29.0679 A2.5,2.5 0 0 1 374.5,31.5679 L374.5,428.5 A2.5,2.5 0 0 1 372,431 L148,431 A2.5,2.5 0 0 1 145.5,428.5 L145.5,6.5 A2.5,2.5 0 0 1 148,4 " fill="transparent" style="stroke:#000000;stroke-width:1.5;"/><line style="stroke:#000000;stroke-width:1.5;" x1="145.5" x2="259.2156" y1="29.0679" y2="29.0679"/><text fill="#000000" font-family="sans-serif" font-size="14" font-weight="bold" lengthAdjust="spacing" textLength="100.7156" x="149.5" y="20.9659">LamagraphML</text></g><!--entity LamagraphIN--><g id="elem_LamagraphIN"><rect fill="#F1F1F1" height="49.0679" rx="2.5" ry="2.5" style="stroke:#181818;stroke-width:0.5;" width="131.0277" x="6" y="119"/><rect fill="#F1F1F1" height="10" style="stroke:#181818;stroke-width:0.5;" width="15" x="117.0277" y="124"/><rect fill="#F1F1F1" height="2" style="stroke:#181818;stroke-width:0.5;" width="4" x="115.0277" y="126"/><rect fill="#F1F1F1" height="2" style="stroke:#181818;stroke-width:0.5;" width="4" x="115.0277" y="130"/><text fill="#000000" font-family="sans-serif" font-size="14" lengthAdjust="spacing" textLength="91.0277" x="21" y="153.9659">LamagraphIN</text></g><!--entity Syntax--><g id="elem_Syntax"><rect fill="#F1F1F1" height="49.0679" rx="2.5" ry="2.5" style="stroke:#181818;stroke-width:0.5;" width="83.7918" x="242.5" y="374"/><rect fill="#F1F1F1" height="10" style="stroke:#181818;stroke-width:0.5;" width="15" x="306.2918" y="379"/><rect fill="#F1F1F1" height="2" style="stroke:#181818;stroke-width:0.5;" width="4" x="304.2918" y="381"/><rect fill="#F1F1F1" height="2" style="stroke:#181818;stroke-width:0.5;" width="4" x="304.2918" y="385"/><text fill="#000000" font-family="sans-serif" font-size="14" lengthAdjust="spacing" textLength="43.7918" x="257.5" y="408.9659">Syntax</text></g><!--entity Parser--><g id="elem_Parser"><rect fill="#F1F1F1" height="49.0679" rx="2.5" ry="2.5" style="stroke:#181818;stroke-width:0.5;" width="82.4899" x="273.5" y="289"/><rect fill="#F1F1F1" height="10" style="stroke:#181818;stroke-width:0.5;" width="15" x="335.9899" y="294"/><rect fill="#F1F1F1" height="2" style="stroke:#181818;stroke-width:0.5;" width="4" x="333.9899" y="296"/><rect fill="#F1F1F1" height="2" style="stroke:#181818;stroke-width:0.5;" width="4" x="333.9899" y="300"/><text fill="#000000" font-family="sans-serif" font-size="14" lengthAdjust="spacing" textLength="42.4899" x="288.5" y="323.9659">Parser</text></g><!--entity Typechecker--><g id="elem_Typechecker"><rect fill="#F1F1F1" height="49.0679" rx="2.5" ry="2.5" style="stroke:#181818;stroke-width:0.5;" width="122.5717" x="243" y="204"/><rect fill="#F1F1F1" height="10" style="stroke:#181818;stroke-width:0.5;" width="15" x="345.5717" y="209"/><rect fill="#F1F1F1" height="2" style="stroke:#181818;stroke-width:0.5;" width="4" x="343.5717" y="211"/><rect fill="#F1F1F1" height="2" style="stroke:#181818;stroke-width:0.5;" width="4" x="343.5717" y="215"/><text fill="#000000" font-family="sans-serif" font-size="14" lengthAdjust="spacing" textLength="82.5717" x="258" y="238.9659">Typechecker</text></g><!--entity Core--><g id="elem_Core"><rect fill="#F1F1F1" height="49.0679" rx="2.5" ry="2.5" style="stroke:#181818;stroke-width:0.5;" width="70.9959" x="154" y="204"/><rect fill="#F1F1F1" height="10" style="stroke:#181818;stroke-width:0.5;" width="15" x="204.9959" y="209"/><rect fill="#F1F1F1" height="2" style="stroke:#181818;stroke-width:0.5;" width="4" x="202.9959" y="211"/><rect fill="#F1F1F1" height="2" style="stroke:#181818;stroke-width:0.5;" width="4" x="202.9959" y="215"/><text fill="#000000" font-family="sans-serif" font-size="14" lengthAdjust="spacing" textLength="30.9959" x="169" y="238.9659">Core</text></g><!--entity SyntaxToCore--><g id="elem_SyntaxToCore"><rect fill="#F1F1F1" height="49.0679" rx="2.5" ry="2.5" style="stroke:#181818;stroke-width:0.5;" width="131.0417" x="194" y="119"/><rect fill="#F1F1F1" height="10" style="stroke:#181818;stroke-width:0.5;" width="15" x="305.0417" y="124"/><rect fill="#F1F1F1" height="2" style="stroke:#181818;stroke-width:0.5;" width="4" x="303.0417" y="126"/><rect fill="#F1F1F1" height="2" style="stroke:#181818;stroke-width:0.5;" width="4" x="303.0417" y="130"/><text fill="#000000" font-family="sans-serif" font-size="14" lengthAdjust="spacing" textLength="91.0417" x="209" y="153.9659">SyntaxToCore</text></g><!--entity CoreInterpreter--><g id="elem_CoreInterpreter"><rect fill="#F1F1F1" height="49.0679" rx="2.5" ry="2.5" style="stroke:#181818;stroke-width:0.5;" width="144.1456" x="187.5" y="34"/><rect fill="#F1F1F1" height="10" style="stroke:#181818;stroke-width:0.5;" width="15" x="311.6456" y="39"/><rect fill="#F1F1F1" height="2" style="stroke:#181818;stroke-width:0.5;" width="4" x="309.6456" y="41"/><rect fill="#F1F1F1" height="2" style="stroke:#181818;stroke-width:0.5;" width="4" x="309.6456" y="45"/><text fill="#000000" font-family="sans-serif" font-size="14" lengthAdjust="spacing" textLength="104.1456" x="202.5" y="68.9659">CoreInterpreter</text></g><polygon fill="#181818" points="259.5,118.8786,263.5,109.8786,259.5,113.8786,255.5,109.8786,259.5,118.8786" style="stroke:#181818;stroke-width:1;"/><path d="M259.5,83.0625 C259.5,94.2773 259.5,101.6562 259.5,112.8786 " fill="transparent" style="stroke:#181818;stroke-width:1;"/><polygon fill="#181818" points="291.6932,203.8786,290.92,194.0602,289.3101,199.4831,283.8872,197.8732,291.6932,203.8786" style="stroke:#181818;stroke-width:1;"/><path d="M272.2748,168.0625 C278.3552,179.2773 282.7491,187.3816 288.8335,198.604 " fill="transparent" style="stroke:#181818;stroke-width:1;"/><polygon fill="#181818" points="209.4216,203.8786,218.2817,199.5775,212.6452,200.0565,212.1662,194.4199,209.4216,203.8786" style="stroke:#181818;stroke-width:1;"/><path d="M239.628,168.0625 C230.1698,179.2773 222.7545,188.0696 213.2899,199.292 " fill="transparent" style="stroke:#181818;stroke-width:1;"/><polygon fill="#181818" points="311.6541,288.8786,314.5488,279.4648,311.056,283.9145,306.6062,280.4217,311.6541,288.8786" style="stroke:#181818;stroke-width:1;"/><path d="M307.3389,253.0625 C308.69,264.2773 309.5843,271.6993 310.9364,282.9217 " fill="transparent" style="stroke:#181818;stroke-width:1;"/><polygon fill="#181818" points="273.7399,373.8505,274.2152,364.0131,271.9321,369.1887,266.7564,366.9056,273.7399,373.8505" style="stroke:#181818;stroke-width:1;"/><path d="M283.7816,253.2728 C276.1521,263.5426 268.4204,276.1415 264.5,289 C255.7858,317.5816 262.9494,346.0254 271.5705,368.2564 " fill="transparent" style="stroke:#181818;stroke-width:1;"/><polygon fill="#181818" points="293.0378,373.8786,299.859,366.7742,294.7375,369.1764,292.3353,364.0549,293.0378,373.8786" style="stroke:#181818;stroke-width:1;"/><path d="M305.9834,338.0625 C301.9299,349.2773 299.1337,357.0135 295.0774,368.2359 " fill="transparent" style="stroke:#181818;stroke-width:1;"/><polygon fill="#181818" points="155.9178,203.8786,150.8577,195.429,151.8282,201.002,146.2552,201.9724,155.9178,203.8786" style="stroke:#181818;stroke-width:1;"/><path d="M104.9984,168.0625 C120.9424,179.2773 135.0555,189.2043 151.0102,200.4267 " fill="transparent" style="stroke:#181818;stroke-width:1;"/><!--SRC=[RP1H3e8m343_Uufw0AxWZrycQ4pa0dKsG73hKceYCTvTH28JsCUIljTsxJPHgVI4D-haRjXwDWe4O1BH12zY9XwljRApMW909DTGoPYJfr8fLeSSdu3zSUAZ10w6vouOFMRmHDgopc3HHNOLksPXTgAyshQG5VL1-s2iKRc_uGKmGvXbs_yEQJ3OT9Y574gIZ06EEytnkF_NfWIcYN__jpy29C7qs1i0]--></g></svg>